HIERARCHY
ROOT pelvis
{
  OFFSET 0 100 0
  CHANNELS 6 Xposition Yposition Zposition Zrotation Xrotation Yrotation
  JOINT pelvis_right_femur
  {
    OFFSET -10.78128 -3.44521 -0.5502486
    CHANNELS 3 Zrotation Xrotation Yrotation
    JOINT right_femur_tibia
    {
      OFFSET -0.8047443 -44.0398 -0.1307829
      CHANNELS 3 Zrotation Xrotation Yrotation
      JOINT right_tibia_foot
      {
        OFFSET 3.006224 -47.83518 -5
        CHANNELS 3 Zrotation Xrotation Yrotation
        End Site
        {
          OFFSET 0 -5 15
        }
      }
    }
  }
  JOINT pelvis_left_femur
  {
    OFFSET 10.78128 -3.44521 -0.5502486
    CHANNELS 3 Zrotation Xrotation Yrotation
    JOINT left_femur_tibia
    {
      OFFSET 0.8047443 -44.0398 -0.1307829
      CHANNELS 3 Zrotation Xrotation Yrotation
      JOINT left_tibia_foot
      {
        OFFSET -4.370144 -48.10324 -4.275266
        CHANNELS 3 Zrotation Xrotation Yrotation
        End Site
        {
          OFFSET 0 -5 15
        }
      }
    }
  }
  JOINT pelvis_spine1
  {
    OFFSET 0 6.468898 -3.129235
    CHANNELS 3 Zrotation Xrotation Yrotation
    JOINT spine1
    {
      OFFSET 0 23.15396 4.99043
      CHANNELS 3 Zrotation Xrotation Yrotation
      JOINT spine2
      {
        OFFSET 0 20.79997 -5.064912
        CHANNELS 3 Zrotation Xrotation Yrotation
        JOINT neck
        {
          OFFSET 0 14.38658 9.616178
          CHANNELS 3 Zrotation Xrotation Yrotation
          End Site
          {
            OFFSET 0 20 0
          }
        }
      }
      JOINT right_manubrium
      {
        OFFSET -5.722621 16.35077 3.967754
        CHANNELS 3 Zrotation Xrotation Yrotation
        JOINT right_clavicle
        {
          OFFSET -13.16364 1.694482 -4.693211
          CHANNELS 3 Zrotation Xrotation Yrotation
          JOINT right_humerus
          {
            OFFSET -28.5034 -0.3100689 -2.792744
            CHANNELS 3 Zrotation Xrotation Yrotation
            JOINT right_radius
            {
              OFFSET -25.15693 0.02248979 -1.271978
              CHANNELS 3 Zrotation Xrotation Yrotation
              End Site
              {
                OFFSET -15 0 0
              }
            }
          }
        }
      }
      JOINT left_manubrium
      {
        OFFSET 5.722621 16.35077 3.967754
        CHANNELS 3 Zrotation Xrotation Yrotation
        JOINT left_clavicle
        {
          OFFSET 13.16364 1.694482 -4.693211
          CHANNELS 3 Zrotation Xrotation Yrotation
          JOINT left_humerus
          {
            OFFSET 29.39168 -1.063119 -2.237045
            CHANNELS 3 Zrotation Xrotation Yrotation
            JOINT left_radius
            {
              OFFSET 24.59957 -0.9528479 0.9047498
              CHANNELS 3 Zrotation Xrotation Yrotation
              End Site
              {
                OFFSET 15 -0 -0
              }
            }
          }
        }
      }
    }
  }
}
MOTION
Frames: 23
Frame Time: 0.0416666666667
0 103.5113 0 -0.2006534 -2.507382 -0.06664666 1.767048 -10.78864 9.83047 -0 36.97651 -0 -6.061525 -15.65894 -4.452266 -4.458081 8.597178 -18.36271 -0 10.43243 -0 2.526001 -23.15428 21.72573 -1.055665 -5.63896 4.22677 2.208936 14.07554 -7.406174 -4.285959 15.29347 14.28935 14.02144 -22.34744 3.653809 7.673208 -22.62812 9.51893 82.07599 34.96585 -16.76414 -0 0 20.00032 -7.375374 8.177914 -0.1491176 5.032422 -24.2945 -1.219966 -102.1066 34.67383 29.34145 0 0 -11.88911 8.371505 25.78078 8.229326
0.3367195 103.6057 1.394252 -0.207628 -2.469907 0.05730151 2.916744 -14.79551 9.314267 -0 40.43368 -0 -6.523091 -14.95183 -4.986875 -4.441029 9.924536 -18.01695 -0 9.465297 -0 1.935166 -23.47772 21.20987 -1.327844 -4.874165 3.814735 2.100635 13.93628 -7.642471 -4.067573 15.58331 13.91312 13.55206 -22.70225 3.944081 7.634285 -22.65048 9.015494 81.99245 34.81659 -16.7039 -0 0 19.96651 -7.688615 8.159083 0.2504848 5.557728 -24.30805 -0.1134266 -101.2943 34.71932 28.72495 0 0 -11.8398 8.004414 25.32255 8.574019
0.7607337 103.6844 3.142201 -0.2163516 -2.438257 0.1571468 3.71439 -18.69151 8.482715 -0 41.09544 -0 -7.001898 -13.83682 -5.340278 -4.494467 11.4994 -17.62236 -0 8.48141 -0 1.299721 -23.78967 20.63518 -1.716654 -3.940558 3.517084 2.049791 13.73254 -7.855069 -3.78316 15.80334 13.46678 13.00024 -23.19687 4.312606 7.397012 -22.24724 8.594592 82.34615 34.7587 -17.1454 -0 0 19.48985 -7.816637 8.162646 0.5278352 6.165759 -24.3623 0.7330687 -100.5591 34.71297 27.86409 0 0 -12.23288 7.70926 24.84187 8.764663
1.050361 103.5896 4.91202 -0.2312697 -2.441592 0.1275233 4.011381 -21.90554 7.321977 -0 38.65721 -0 -7.500291 -12.48526 -4.992064 -4.509174 13.01286 -17.23598 -0 7.72592 -0 0.6881805 -24.17961 20.00509 -1.897595 -2.746692 3.543246 2.206715 13.32579 -7.802589 -3.197859 16.14843 13.07537 12.54158 -23.74158 5.115426 7.018549 -21.74691 8.305528 82.85757 34.8143 -17.79955 -0 0 18.56876 -7.785863 8.187996 0.674553 6.709997 -24.83898 1.412626 -99.61607 34.72035 26.52678 0 0 -13.08045 7.479323 24.33912 8.78351
1.353444 103.3579 6.983545 -0.2331178 -2.368323 0.3731435 3.923826 -24.79386 6.890868 -0 34.70757 -0 -8.10607 -10.72906 -3.840115 -4.568696 14.48747 -16.88334 -0 7.308121 -0 0.1139966 -24.65793 19.27896 -2.165524 -1.415638 3.408246 2.389203 12.8586 -7.933495 -2.665665 16.33953 12.60309 11.96223 -24.43102 5.84147 6.693165 -21.20724 8.267325 83.51125 34.97448 -18.56417 -0 0 17.26485 -7.599039 8.23441 0.7129549 7.138627 -25.23445 1.63823 -98.59798 34.66185 24.98654 0 0 -14.26441 7.337388 23.80381 8.631412
1.656248 102.7525 9.581744 -0.2327863 -2.292689 0.6280614 4.156116 -27.12837 6.149173 -0 29.05911 -0 -8.38819 -9.011374 -2.927317 -4.665069 16.04149 -16.53887 -0 7.339726 -0 -0.431272 -25.21868 18.44371 -2.311178 -0.3515191 3.322792 2.554738 12.42368 -8.00953 -2.165361 16.55108 12.06824 11.31145 -25.06828 6.470351 6.321415 -20.53457 8.449991 84.40827 35.23299 -19.47465 -0 0 15.53936 -7.27761 8.317988 0.6542379 7.502463 -25.49807 1.664704 -97.60597 34.49415 23.40646 0 0 -15.66492 7.268714 23.23164 8.357396
1.865712 102.0143 12.53324 -0.223041 -2.168719 1.059507 4.127473 -28.95978 5.273706 -0 23.41066 -0 -8.672171 -7.662913 -2.373268 -4.76197 17.50587 -16.15787 -0 7.891585 -0 -1.031788 -25.71009 17.50613 -2.324428 0.6865097 3.254941 2.713946 12.04367 -7.964702 -1.679295 16.84314 11.50178 10.64692 -25.64272 7.024901 6.046846 -19.84196 8.971086 85.43251 35.57383 -20.38243 -0 0 13.59701 -6.849027 8.441591 0.5509911 7.703862 -25.79755 1.420452 -96.55335 34.2565 21.79611 0 0 -17.05564 7.184495 22.60973 8.056783
2.084437 101.1496 15.99202 -0.2073865 -2.014714 1.603571 4.155268 -30.21508 4.38336 -0 18.99014 -0 -8.97821 -6.719286 -2.219545 -4.946187 18.76741 -15.6712 -0 9.1917 -0 -1.800019 -25.9258 16.45005 -2.31946 1.374779 3.042224 2.872834 11.66301 -8.066213 -1.297769 17.06853 11.05901 10.01322 -25.87956 7.461397 5.755734 -19.07824 9.468818 86.43543 35.85191 -21.34445 -0 0 11.80777 -6.470723 8.594937 0.5477898 7.785745 -25.95798 0.9280379 -95.52493 33.94726 20.43858 0 0 -18.18791 7.007959 21.93116 7.808777
2.201527 100.4354 19.89382 -0.1790358 -1.786133 2.421108 4.128548 -30.70203 3.60443 -0 17.07873 -0 -9.518282 -5.975153 -2.381314 -4.841154 19.82398 -14.97635 -0 11.36163 -0 -2.932664 -25.45562 15.1002 -2.236654 1.84139 2.734556 3.047996 11.37955 -8.289059 -0.9586927 17.21875 10.68749 9.472938 -26.01962 7.801035 5.732156 -18.31538 9.882023 87.35124 36.02373 -22.31004 -0 0 10.31395 -6.201282 8.787545 0.6949451 7.448711 -25.94466 0.4180653 -94.61225 33.46077 19.54676 0 0 -18.75428 6.790554 21.20326 7.689247
2.322745 100.1475 24.58959 -0.1356168 -1.448444 3.633888 3.902395 -29.70052 2.760815 -0 17.6547 -0 -10.18035 -5.414142 -2.957036 -4.51089 20.49907 -13.95659 -0 14.76992 -0 -4.484041 -23.76226 13.56033 -1.952258 1.88155 2.355534 3.231686 11.14622 -8.656753 -0.7302451 17.46869 10.41766 9.000397 -26.05395 8.059387 5.748645 -17.43268 10.20325 88.2032 36.10383 -23.30182 -0 0 9.114202 -6.100575 9.025004 1.01823 6.804709 -25.77546 -0.1392173 -94.02253 32.84431 19.00727 0 0 -19.11648 6.552167 20.49787 7.674886
2.388649 99.98904 29.8647 -0.1023841 -1.160518 4.667948 3.972319 -27.78135 2.145356 -0 19.20941 -0 -10.81385 -5.185474 -3.536697 -4.326316 20.17807 -12.83621 -0 20.02569 -0 -6.313661 -20.47092 12.15815 -1.445927 1.265577 2.029315 3.312394 10.91839 -9.084433 -0.6872529 17.87185 10.25425 8.462609 -25.70998 8.22139 5.60177 -16.5734 10.27072 89.04304 36.13032 -24.1477 -0 0 8.276804 -6.163497 9.317329 1.525255 6.075955 -25.14786 -0.6250436 -93.69292 32.11396 19.13647 0 0 -18.97445 6.187498 19.74967 7.798576
2.505195 100.4902 35.59755 -0.0875013 -1.010057 5.208051 4.058644 -25.17248 1.959376 -0 20.28513 -0 -11.26402 -5.530817 -3.717169 -4.107871 19.15231 -11.55416 -0 27.36066 -0 -8.28382 -15.32919 10.9445 -0.7943598 0.2642174 1.99156 3.328414 10.82474 -9.263781 -0.8038492 18.53358 10.1026 7.891177 -25.08199 8.191882 5.497527 -15.88858 10.34962 89.62729 36.1894 -24.6403 -0 0 7.71673 -6.401486 9.656568 2.175628 5.313987 -24.35374 -0.8941361 -93.6255 31.26889 19.52452 0 0 -18.8894 5.842456 19.02457 7.923512
2.538017 101.1521 41.40736 -0.1040348 -1.121457 4.808771 4.357774 -21.64659 1.841386 -0 20.36437 -0 -11.59499 -6.748558 -3.57303 -4.44857 15.70232 -10.25923 -0 36.95722 -0 -9.806891 -9.29384 10.47931 -0.2339314 -0.773449 2.531761 3.243263 10.90815 -8.981963 -0.9674094 19.36991 9.926882 7.354681 -24.30095 8.031594 5.432864 -15.55937 10.63765 89.73134 36.3487 -24.46255 -0 0 7.546177 -6.838954 10.03729 2.960069 4.697811 -23.36704 -0.9649017 -93.56361 30.35631 20.25836 0 0 -18.57531 5.472146 18.26676 8.144843
2.699427 102.0486 46.94674 -0.1393614 -1.363154 3.941173 4.555973 -17.25098 1.4615 -0 19.16893 -0 -11.63226 -8.285873 -3.140585 -4.259519 10.24479 -8.942117 -0 46.78335 -0 -10.68069 -3.998902 10.57044 0.3634428 -1.420566 3.437988 3.181773 10.91016 -8.489868 -1.144219 20.20748 9.651725 6.8536 -23.51373 7.677977 5.543338 -15.57676 11.15255 89.12287 36.6334 -23.57382 -0 0 7.615138 -7.581365 10.41428 3.855391 4.025102 -22.9305 -1.01913 -93.24789 29.43452 20.51105 0 0 -18.66116 5.153749 17.54904 8.275854
2.744292 102.9399 52.14284 -0.1630925 -1.509644 3.416111 4.619725 -12.56281 1.017106 -0 16.93131 -0 -11.29615 -9.738987 -2.508528 -3.63556 3.763698 -7.537285 -0 54.13393 -0 -10.76505 -1.172527 11.63002 0.5316218 -1.888567 4.614578 3.228169 10.92508 -7.909508 -1.079045 20.8487 9.224217 6.515716 -22.83658 7.290962 5.731824 -15.80256 11.70973 88.04518 36.92878 -22.03763 -0 0 8.054859 -8.708239 10.75714 4.933556 3.512821 -22.45481 -1.168468 -92.84081 28.51391 20.78054 0 0 -18.73177 4.870353 16.81292 8.471007
2.856531 104.0988 57.26189 -0.1874117 -1.656637 2.887985 4.579517 -7.635134 0.4816905 -0 14.06199 -0 -10.57886 -10.86885 -1.747293 -2.53722 -3.078845 -6.925437 -0 58.0996 -0 -9.208708 -1.091266 12.6976 0.6125448 -2.121105 5.859648 3.190735 10.85967 -7.123932 -0.9037712 21.42201 8.733104 6.283142 -22.24575 6.885968 5.75807 -16.33267 12.31508 86.35878 37.20115 -19.7799 -0 0 8.909043 -10.25047 11.0035 6.202474 3.266152 -22.09279 -1.193929 -92.31327 27.69479 21.02791 0 0 -18.82675 4.512001 16.07186 8.703427
2.814377 104.8083 62.12793 -0.2088189 -1.780084 2.444014 4.563965 -2.85162 -0.08658801 -0 11.08617 -0 -9.637799 -11.92666 -0.9430839 -1.563731 -10.33594 -5.956 -0 57.48712 -0 -7.504376 -0.8950689 14.15353 0.6357411 -2.450244 6.74762 2.972505 10.75951 -6.440206 -0.8779374 21.87324 8.403801 6.00627 -21.53838 6.522709 5.49349 -17.00809 12.67361 84.55179 37.312 -17.1218 -0 0 10.189 -12.0575 11.12528 7.606267 3.367596 -21.61313 -1.047058 -91.79214 26.91851 21.34879 0 0 -18.9545 4.193519 15.36409 8.928224
2.785175 105.2036 66.7921 -0.2121732 -1.79747 2.380517 4.552157 1.487601 -0.6387078 -0 8.480835 -0 -8.601614 -12.97971 -0.284326 0.131688 -16.818 -4.850122 -0 52.33735 -0 -5.73358 -2.69687 16.08285 0.5338807 -2.281877 7.313608 2.65602 10.51076 -5.82043 -0.862892 22.04192 8.131869 5.725493 -20.9454 6.219651 5.208005 -17.93336 13.07436 82.42156 37.26319 -13.97275 -0 0 11.85275 -14.06159 11.11686 9.075264 3.505259 -21.32407 -1.038463 -91.22236 26.2955 21.54977 0 0 -18.90768 3.874207 14.70924 9.167718
2.947883 105.0863 71.35736 -0.218052 -1.826993 2.269693 4.5596 5.477121 -1.234574 -0 6.529164 -0 -7.567122 -14.19095 0.1205689 1.884801 -21.88259 -3.755784 -0 44.28759 -0 -4.163768 -4.21637 17.87757 0.4439204 -1.729283 7.564259 2.257909 10.10174 -5.241279 -0.8535355 21.96546 7.960539 5.446035 -20.42999 6.036528 4.812324 -19.24487 13.54628 79.78537 37.01229 -10.31335 -0 0 13.81317 -16.22289 10.98337 10.53251 3.586175 -21.13953 -1.202091 -90.76721 25.80728 21.66294 0 0 -18.66935 3.52075 14.11361 9.460988
3.245165 104.411 76.14724 -0.2097937 -1.773049 2.459201 4.569691 8.883017 -1.642866 -0 5.517455 -0 -6.579952 -15.62397 0.2874649 3.191308 -25.09255 -2.502369 -0 34.51135 -0 -3.390402 -4.641301 19.12214 0.3455541 -1.381465 7.552208 1.916477 9.862784 -4.842602 -0.869731 21.71572 7.890328 5.168571 -19.96914 5.949691 4.426634 -20.3759 13.64019 77.64063 36.53841 -7.082676 -0 0 15.64787 -18.26639 10.75854 11.82395 3.671347 -20.70108 -1.254272 -90.56779 25.342 22.01933 0 0 -18.27419 3.169447 13.57521 9.780495
3.733469 103.2857 81.28321 -0.19645 -1.6882 2.760508 4.573244 11.88412 -1.935785 -0 5.639287 -0 -5.584752 -17.13121 0.2285897 3.846519 -27.11581 -1.574171 -0 24.40391 -0 -3.099126 -4.739093 19.45545 0.1661836 -1.351358 7.169278 1.625156 9.658708 -4.882839 -0.8692742 21.46935 7.906148 4.940212 -19.51984 5.968047 3.892079 -21.43163 13.45465 75.7763 35.8734 -4.202839 -0 0 17.5636 -20.34688 10.49623 13.02463 3.727066 -20.16169 -1.441792 -90.52279 24.99142 22.45115 0 0 -17.53878 2.747831 13.07007 10.24114
4.334606 102.131 86.50459 -0.190732 -1.651907 2.887019 4.551754 14.02462 -2.122481 -0 6.675723 -0 -4.480511 -18.22193 0.07515584 3.742408 -28.47431 -1.929044 -0 16.57984 -0 -2.650416 -5.618929 18.55837 -0.03602959 -1.263987 7.034715 1.354124 9.623028 -4.903065 -0.7633079 21.2496 7.912549 4.821554 -19.1871 6.04037 3.59686 -22.33313 13.24169 74.38363 35.11085 -1.991811 -0 0 19.1778 -22.22685 10.20581 14.01601 3.500494 -19.70126 -1.611148 -90.57079 24.66451 22.92293 0 0 -16.61824 2.251381 12.5457 10.75023
5.12836 101.2893 92.15764 -0.1958729 -1.683841 2.767005 4.046961 16.3288 -1.764273 -0 9.45179 -0 -3.134493 -18.79939 -0.1050668 3.089583 -29.61544 -2.837481 -0 12.43622 -0 -1.841509 -7.005639 18.09654 -0.2865511 -1.356804 7.080675 1.136457 9.706619 -4.873489 -0.5569177 21.10266 7.874516 4.811024 -18.92885 6.112547 3.521536 -22.82288 12.95586 73.74094 34.37859 -0.8522304 -0 0 20.24935 -23.83334 9.944144 14.76516 3.03906 -19.29401 -1.693486 -90.69334 24.36732 23.47783 0 0 -15.50734 1.676664 12.00262 11.3049
